<?xml version="1.0" encoding="UTF-8" standalone="no"?><!DOCTYPE svg PUBLIC "-//W3C//DTD SVG 1.1//EN" "http://www.w3.org/Graphics/SVG/1.1/DTD/svg11.dtd"><svg width="100%" height="100%" viewBox="0 0 237 66" version="1.1" xmlns="http://www.w3.org/2000/svg" xmlns:xlink="http://www.w3.org/1999/xlink" xml:space="preserve" xmlns:serif="http://www.serif.com/" style="fill-rule:evenodd;clip-rule:evenodd;stroke-linejoin:round;stroke-miterlimit:1.41421;"><rect id="ArtBoard1" x="0" y="0" width="236.796" height="66" style="fill:none;"/><clipPath id="_clip1"><rect x="0" y="0" width="236.796" height="66"/></clipPath><g clip-path="url(#_clip1)"><path d="M93.821,49.694l-17.6,0l0,-32.204l17.6,0l0,2.07l-15.354,0l0,12.182l14.495,0l0,2.07l-14.495,0l0,13.812l15.354,0l0,2.07Z" style="fill:#004170;fill-rule:nonzero;"/><path d="M128.184,33.548c0,5.111 -1.278,9.153 -3.833,12.126c-2.555,2.974 -6.08,4.461 -10.573,4.461c-4.479,0 -7.996,-1.487 -10.551,-4.461c-2.556,-2.973 -3.833,-7.03 -3.833,-12.17c0,-5.125 1.288,-9.16 3.866,-12.104c2.577,-2.945 6.098,-4.417 10.562,-4.417c4.494,0 8.011,1.48 10.551,4.439c2.541,2.959 3.811,7.001 3.811,12.126Zm-26.345,0c0,4.611 1.028,8.176 3.084,10.695c2.056,2.518 5.007,3.777 8.855,3.777c3.877,0 6.839,-1.248 8.888,-3.744c2.049,-2.497 3.073,-6.073 3.073,-10.728c0,-4.64 -1.024,-8.198 -3.073,-10.672c-2.049,-2.475 -4.997,-3.712 -8.844,-3.712c-3.833,0 -6.788,1.248 -8.866,3.745c-2.078,2.496 -3.117,6.043 -3.117,10.639Z" style="fill:#004170;fill-rule:nonzero;"/><path d="M140.916,37.381l-8.349,-11.631l2.512,0l7.137,10.089l7.071,-10.089l2.401,0l-8.217,11.631l8.811,12.313l-2.533,0l-7.533,-10.683l-7.578,10.683l-2.401,0l8.679,-12.313Z" style="fill:#004170;fill-rule:nonzero;"/><path d="M181.381,49.694l-2.269,0l0,-15.838l-18.812,0l0,15.838l-2.246,0l0,-32.204l2.246,0l0,14.296l18.812,0l0,-14.296l2.269,0l0,32.204Z" style="fill:#004170;fill-rule:nonzero;"/><path d="M191.844,25.75l0,15.508c0,2.408 0.507,4.159 1.52,5.253c1.013,1.094 2.585,1.641 4.714,1.641c2.849,0 4.945,-0.719 6.289,-2.158c1.344,-1.439 2.015,-3.782 2.015,-7.027l0,-13.217l2.159,0l0,23.944l-1.85,0l-0.397,-3.304l-0.132,0c-1.556,2.497 -4.325,3.745 -8.304,3.745c-5.448,0 -8.173,-2.915 -8.173,-8.745l0,-15.64l2.159,0Z" style="fill:#004170;fill-rule:nonzero;"/><path d="M226.67,25.288c3.348,0 5.87,1.053 7.567,3.161c1.696,2.107 2.544,5.187 2.544,9.24c0,3.98 -0.892,7.049 -2.677,9.208c-1.784,2.159 -4.291,3.238 -7.522,3.238c-1.704,0 -3.238,-0.352 -4.604,-1.057c-1.366,-0.705 -2.445,-1.704 -3.238,-2.996l-0.198,0l-0.617,3.612l-1.366,0l0,-34.275l2.181,0l0,8.613c0,1.292 -0.029,2.482 -0.088,3.569l-0.066,1.872l0.154,0c0.911,-1.439 2.008,-2.497 3.293,-3.172c1.285,-0.676 2.831,-1.013 4.637,-1.013Zm-0.044,1.982c-2.82,0 -4.839,0.808 -6.058,2.423c-1.219,1.616 -1.828,4.281 -1.828,7.996l0,0.375c0,3.612 0.635,6.204 1.905,7.776c1.271,1.571 3.25,2.357 5.937,2.357c2.614,0 4.582,-0.915 5.903,-2.743c1.322,-1.828 1.983,-4.431 1.983,-7.809c0,-6.916 -2.614,-10.375 -7.842,-10.375Z" style="fill:#004170;fill-rule:nonzero;"/><g><rect x="28.033" y="13.401" width="3.064" height="39.049" style="fill:#004170;"/><path d="M47.455,24.53l-34.249,19.774l-1.532,-2.653l34.249,-19.774l1.532,2.653Z" style="fill:#004170;"/><path d="M47.455,41.651l-1.532,2.653l-34.249,-19.774l1.532,-2.653l34.249,19.774Z" style="fill:#004170;"/><path d="M29.565,20.949l10.464,6.041l0,12.083l-10.464,6.042l-10.465,-6.042l0,-12.083l10.465,-6.041Z" style="fill:#004170;"/><path d="M35.937,3.679l0,7.357l-6.372,3.679l-6.372,-3.679l0,-7.357l6.372,-3.679l6.372,3.679Zm-11.054,0.976l0,5.405l4.682,2.703l4.681,-2.703l0,-5.405l-4.681,-2.703l-4.682,2.703Z" style="fill:#004170;"/><path d="M58.144,16.5l0,7.358l-6.372,3.678l-6.372,-3.678l0,-7.358l6.372,-3.679l6.372,3.679Zm-11.054,0.976l0,5.406l4.682,2.702l4.681,-2.702l0,-5.406l-4.681,-2.703l-4.682,2.703Z" style="fill:#004170;"/><path d="M58.144,42.142l0,7.358l-6.372,3.679l-6.372,-3.679l0,-7.358l6.372,-3.678l6.372,3.678Zm-11.054,0.976l0,5.406l4.682,2.703l4.681,-2.703l0,-5.406l-4.681,-2.702l-4.682,2.702Z" style="fill:#004170;"/><path d="M35.937,54.964l0,7.357l-6.372,3.679l-6.372,-3.679l0,-7.357l6.372,-3.679l6.372,3.679Zm-11.054,0.976l0,5.405l4.682,2.703l4.681,-2.703l0,-5.405l-4.681,-2.703l-4.682,2.703Z" style="fill:#004170;"/><path d="M13.73,42.142l0,7.358l-6.372,3.679l-6.372,-3.679l0,-7.358l6.372,-3.678l6.372,3.678Zm-11.054,0.976l0,5.406l4.682,2.703l4.681,-2.703l0,-5.406l-4.681,-2.702l-4.682,2.702Z" style="fill:#004170;"/><path d="M13.73,16.5l0,7.358l-6.372,3.678l-6.372,-3.678l0,-7.358l6.372,-3.679l6.372,3.679Zm-11.054,0.976l0,5.406l4.682,2.702l4.681,-2.702l0,-5.406l-4.681,-2.703l-4.682,2.703Z" style="fill:#004170;"/></g></g></svg>